. 
  
http://www.torrentday.com/        :     The Hottest Private Tracker On The Net!!!


               www . TorrentDay . Com 
(((((((((((((= Enjoy No RAR releases =))))))))))))))))))))


...................................NFO:....................................

.
                                                     
                                                   
                                                         
                                                          
                                                           
                                                          
                                                          
                                                          
                                                           
                                                         
                                                          
                                                        
                                                      
                                     
                                                 
                                                   
                                             
                                              
                                                     
                                                      
                                                      
                                                      
                                                    
                                                     
                                                   
                                                     
                                                     
                                                      
                                                     
                                                      
                                                    
                 ARTiCHOKE                        
                                                
                      
                                                        
                                                      
                                                      
                                               
                                          
                                                   
                                            
                                                    
                                                       
                                                        
                                                      
                                                
                                                        
                                                 
                                              
                                                  
                                                
                                                  
                                        

      
                                
      SPRiNTER proudly presents...     
                                
      
 
Tommy.Tricker.And.The.Stamp.Traveller.1988.DVDRip.XViD-SPRiNTER 
http://www.imdb.com/title/tt0096282/

Date: 2010.08

Director : Michael Rubbo

Genre: Adventure | Family 

Plot: When the joker Tommy Tricker plays some practical jokes on some of his friends, his best friend Ralph, 
      a stamp collector, discovers the secret of "stamp travel" to make him travel around the world on a stamp to 
      bring back the mysterious Charles Merriweather, who never returned on a stamp for 75 years.

Cast : 
      Lucas Evans	 ... 	Ralph James
	Anthony Rogers	... 	Tommy Tricker
	Jill Stanley	... 	Nancy James
	Andrew Whitehead	... 	Albert
	Paul Popowich	... 	Cass
	Han Yun	... 	Mai Ling
	Chen Yuan Tao	... 	Chen Tow
	Catherine Wright	... 	Cheryl

      
                 
      Release notes     
                 
      

	   Enjoy!


      
           
     Greetings    
           
      


NTX aAF FiCO HNR CiNEFiLE AEN HUMANiSM


      
           
      Details     
           
      

Format                           : AVI
Format/Info                      : Audio Video Interleave
File size                        : 698 MiB
Duration                         : 1h 41mn
Overall bit rate                 : 964 Kbps
Writing application              : Nandub v1.0rc2
Writing library                  : Nandub build 1852/release

Video
ID                               : 0
Format                           : MPEG-4 Visual
Format profile                   : AdvancedSimple@L5
Format settings, BVOP            : No
Format settings, QPel            : No
Format settings, GMC             : No warppoints
Format settings, Matrix          : Default (H.263)
Codec ID                         : XVID
Codec ID/Hint                    : XviD
Duration                         : 1h 41mn
Bit rate                         : 874 Kbps
Width                            : 512 pixels
Height                           : 384 pixels
Display aspect ratio             : 4:3
Frame rate                       : 23.976 fps
Resolution                       : 24 bits
Colorimetry                      : 4:2:0
Scan type                        : Progressive
Bits/(Pixel*Frame)               : 0.185
Stream size                      : 632 MiB (91%)
Writing library                  : XviD 1.2.1 (UTC 2008-12-04)

Audio
ID                               : 1
Format                           : MPEG Audio
Format version                   : Version 1
Format profile                   : Layer 3
Codec ID                         : 55
Codec ID/Hint                    : MP3
Duration                         : 1h 41mn
Bit rate mode                    : Variable
Bit rate                         : 77.2 Kbps
Minimum bit rate                 : 32.0 Kbps
Channel(s)                       : 1 channel
Sampling rate                    : 48.0 KHz
Resolution                       : 16 bits
Stream size                      : 55.9 MiB (8%)
Alignment                        : Aligned on interleaves
Interleave, duration             : 24 ms (0.58 video frame)
Interleave, preload duration     : 465 ms
Writing library                  : LAME3.98r
Encoding settings                : -m m -V 5 -q 0 -lowpass 16.5 --vbr-new -b 32